<?xml version="1.0" encoding="UTF-8" standalone="no"?>
<!-- Created with Inkscape (http://www.inkscape.org/) -->

<svg
   xmlns:osb="http://www.openswatchbook.org/uri/2009/osb"
   xmlns:dc="http://purl.org/dc/elements/1.1/"
   xmlns:cc="http://creativecommons.org/ns#"
   xmlns:rdf="http://www.w3.org/1999/02/22-rdf-syntax-ns#"
   xmlns:svg="http://www.w3.org/2000/svg"
   xmlns="http://www.w3.org/2000/svg"
   xmlns:xlink="http://www.w3.org/1999/xlink"
   xmlns:sodipodi="http://sodipodi.sourceforge.net/DTD/sodipodi-0.dtd"
   xmlns:inkscape="http://www.inkscape.org/namespaces/inkscape"
   width="277.66132mm"
   height="328.83926mm"
   viewBox="0 0 277.66132 328.83926"
   version="1.1"
   id="svg8"
   inkscape:version="0.92.4 (5da689c313, 2019-01-14)"
   sodipodi:docname="ex_1.svg">
  <defs
     id="defs2">
    <linearGradient
       id="linearGradient879"
       osb:paint="solid">
      <stop
         style="stop-color:#000000;stop-opacity:1;"
         offset="0"
         id="stop877" />
    </linearGradient>
    <linearGradient
       id="linearGradient869"
       osb:paint="solid">
      <stop
         style="stop-color:#000000;stop-opacity:1;"
         offset="0"
         id="stop867" />
    </linearGradient>
    <inkscape:path-effect
       effect="bspline"
       id="path-effect27"
       is_visible="true"
       weight="33.333333"
       steps="2"
       helper_size="0"
       apply_no_weight="true"
       apply_with_weight="true"
       only_selected="false" />
    <inkscape:path-effect
       effect="bspline"
       id="path-effect23"
       is_visible="true"
       weight="33.333333"
       steps="2"
       helper_size="0"
       apply_no_weight="true"
       apply_with_weight="true"
       only_selected="false" />
    <linearGradient
       inkscape:collect="always"
       xlink:href="#linearGradient869"
       id="linearGradient871"
       x1="745.044"
       y1="287.5962"
       x2="786.33396"
       y2="287.5962"
       gradientUnits="userSpaceOnUse" />
    <linearGradient
       inkscape:collect="always"
       xlink:href="#linearGradient879"
       id="linearGradient881"
       x1="748.30486"
       y1="287.4451"
       x2="772.16971"
       y2="287.4451"
       gradientUnits="userSpaceOnUse" />
  </defs>
  <sodipodi:namedview
     id="base"
     pagecolor="#ffffff"
     bordercolor="#666666"
     borderopacity="1.0"
     inkscape:pageopacity="0.0"
     inkscape:pageshadow="2"
     inkscape:zoom="0.7"
     inkscape:cx="607.4679"
     inkscape:cy="720.04305"
     inkscape:document-units="mm"
     inkscape:current-layer="layer1"
     showgrid="false"
     fit-margin-top="0"
     fit-margin-left="0"
     fit-margin-right="0"
     fit-margin-bottom="0"
     inkscape:window-width="1920"
     inkscape:window-height="991"
     inkscape:window-x="-9"
     inkscape:window-y="-9"
     inkscape:window-maximized="1" />
  <metadata
     id="metadata5">
    <rdf:RDF>
      <cc:Work
         rdf:about="">
        <dc:format>image/svg+xml</dc:format>
        <dc:type
           rdf:resource="http://purl.org/dc/dcmitype/StillImage" />
        <dc:title></dc:title>
      </cc:Work>
    </rdf:RDF>
  </metadata>
  <g
     inkscape:label="Capa 1"
     inkscape:groupmode="layer"
     id="layer1"
     transform="translate(32.00668,23.090975)">
    <g
       id="g4688">
      <g
         id="g4691">
        <path
           style="opacity:1;fill:#000000;fill-opacity:1;stroke:#000000;stroke-width:3.5338583;stroke-miterlimit:4;stroke-dasharray:none;stroke-opacity:1"
           d="m 304.03061,1237.2107 c -31.34813,-8.4267 -54.54497,-23.8508 -90.93476,-60.4643 C 133.02845,1096.1868 61.632143,974.18763 31.259197,866.03115 23.084956,836.92309 11.469456,782.5544 7.8284935,756.359 6.2068318,744.69174 4.3439195,711.05366 3.6886885,681.60772 2.7182184,637.99499 3.1366428,622.82605 5.9457005,599.78536 15.557253,520.94867 35.643336,466.43943 74.287924,414.31948 c 31.236246,-42.12832 69.752206,-74.8603 114.582156,-97.37526 57.62632,-28.94167 147.42957,-38.43326 211.01677,-22.30304 10.38223,2.63366 36.84655,12.21273 58.80961,21.28682 66.87955,27.63142 79.16201,29.07987 121.10579,14.28179 98.88296,-34.88665 118.34931,-39.77662 166.67517,-41.86905 101.14193,-4.37926 182.32575,27.80054 250.07854,99.12661 8.01974,8.44274 14.58164,16.48412 14.58184,17.86973 2e-4,1.38562 -6.5553,8.42869 -14.56786,15.65128 -62.4001,56.24815 -86.30736,88.27804 -104.35157,139.80554 -28.74237,82.07738 -14.12169,180.51179 36.862,248.175 16.86232,22.3789 47.63096,51.79723 74.12903,70.87582 27.8507,20.05252 30.8102,24.46648 29.6353,44.19961 -1.1683,19.62187 -7.9907,39.22687 -27.7706,79.80207 -18.69501,38.3498 -34.76261,64.0531 -65.67251,105.0558 -38.97246,51.698 -63.72471,76.8686 -100.496,102.1945 -20.5327,14.1417 -34.99972,20.9506 -55.88077,26.3002 -30.49402,7.8124 -41.45032,5.8181 -128.47128,-23.3846 -31.1127,-10.4408 -62.47794,-20.1099 -69.70053,-21.4869 -16.70842,-3.1853 -56.82562,-3.1707 -77.78174,0.028 -22.77834,3.4772 -41.54798,8.9437 -78.75903,22.9379 -66.54245,25.025 -94.0809,29.8375 -124.28163,21.7191 z"
           id="path29"
           inkscape:connector-curvature="0"
           transform="matrix(0.26458333,0,0,0.26458333,-32.00668,-23.090975)" />
      </g>
    </g>
    <g
       id="g4694">
      <path
         inkscape:connector-curvature="0"
         id="path31"
         d="m 105.9094,50.476888 c -0.88453,-12.429768 3.05886,-26.425279 10.6391,-37.75928 3.75386,-5.6127829 11.0649,-13.8592958 15.95624,-17.997885 5.79198,-4.900639 13.67588,-9.970352 18.66313,-12.001257 5.24872,-2.137385 14.294,-4.526218 17.16454,-4.533107 1.81504,-0.0044 2.11442,0.192876 2.80633,1.848842 1.05174,2.517178 1.00806,11.5588414 -0.0868,17.9636674 -2.42369,14.1785716 -9.28394,27.1975506 -19.9857,37.9277406 -10.35875,10.386248 -20.38459,15.876418 -34.09488,18.670394 -2.94892,0.600951 -6.5608,1.092642 -8.02638,1.092642 h -2.6647 z"
         style="opacity:1;fill:#000000;fill-opacity:1;stroke:#000000;stroke-width:0.935;stroke-miterlimit:4;stroke-dasharray:none;stroke-opacity:1" />
    </g>
    <path
       style="opacity:0;fill:#000000;fill-opacity:1;stroke-width:0.35714287"
       d="m 599.42637,322.81071 c 0.0821,-0.0821 4.62166,-1.92979 10.0879,-4.10596 41.66273,-16.58643 79.44356,-26.35192 116.13187,-30.01744 12.80105,-1.27895 16.58224,-1.4821 31.42857,-1.68855 43.45858,-0.60433 79.1784,4.71509 116.07143,17.28542 4.27719,1.45734 6.10344,2.24243 6.17976,2.65663 0.0879,0.47716 -0.71969,0.28888 -4.28571,-0.99914 -24.73008,-8.9323 -51.50545,-14.50615 -82.42977,-17.15948 -9.22592,-0.79159 -44.83519,-0.91307 -55.35714,-0.18886 -27.63514,1.9021 -43.23143,4.6061 -68.75,11.91949 -13.45836,3.85705 -41.08087,12.84709 -62.28541,20.27147 -5.66811,1.98458 -7.2096,2.44453 -6.7915,2.02642 z"
       id="path37"
       inkscape:connector-curvature="0"
       transform="matrix(0.26458333,0,0,0.26458333,-32.00668,-23.090975)" />
    <path
       style="opacity:0;fill:#000000;fill-opacity:1;stroke-width:0.35714287"
       d="m 599.42637,322.81071 c 0.0821,-0.0821 4.62166,-1.92979 10.0879,-4.10596 41.66273,-16.58643 79.44356,-26.35192 116.13187,-30.01744 12.80105,-1.27895 16.58224,-1.4821 31.42857,-1.68855 43.45858,-0.60433 79.1784,4.71509 116.07143,17.28542 4.27719,1.45734 6.10344,2.24243 6.17976,2.65663 0.0879,0.47716 -0.71969,0.28888 -4.28571,-0.99914 -24.73008,-8.9323 -51.50545,-14.50615 -82.42977,-17.15948 -9.22592,-0.79159 -44.83519,-0.91307 -55.35714,-0.18886 -27.63514,1.9021 -43.23143,4.6061 -68.75,11.91949 -13.45836,3.85705 -41.08087,12.84709 -62.28541,20.27147 -5.66811,1.98458 -7.2096,2.44453 -6.7915,2.02642 z"
       id="path39"
       inkscape:connector-curvature="0"
       transform="matrix(0.26458333,0,0,0.26458333,-32.00668,-23.090975)" />
    <path
       style="opacity:0;fill:#000000;fill-opacity:1;stroke-width:0.35714287"
       d="m 530.11042,337.58702 c -7.41253,-0.91636 -18.88917,-3.64387 -27.69368,-6.5816 -7.60024,-2.53592 -18.77176,-6.96941 -42.30632,-16.78956 -24.29215,-10.13627 -33.08656,-13.64526 -41.25,-16.45888 l -6.42857,-2.21567 -0.0901,-82.00494 -0.09,-82.00494 h 72.1789 72.1789 l -0.69678,1.16071 c -0.38323,0.63839 -2.46718,3.97321 -4.631,7.41071 -17.47577,27.76242 -28.0726,55.91958 -33.47916,88.95856 -3.0578,18.68592 -3.95571,28.79586 -3.41489,38.44968 0.92611,16.53116 2.14384,29.43134 2.92018,30.93512 1.28652,2.49203 2.23973,2.61928 12.44538,1.66146 44.17057,-4.14549 78.99764,-15.40083 111.42857,-36.01125 30.52424,-19.3987 53.29721,-40.4264 74.91331,-69.17214 13.41094,-17.83428 25.71038,-39.48894 33.51789,-59.01232 l 1.74737,-4.36947 64.01786,-0.006 64.01786,-0.006 v 86.73562 86.73562 l -5.625,-1.9397 c -27.05918,-9.33095 -52.4904,-14.3207 -85.44643,-16.76508 -10.39643,-0.77111 -39.03706,-0.88624 -48.39286,-0.19452 -47.51354,3.5129 -85.34552,12.91894 -138.92857,34.54136 -16.1294,6.50871 -22.94343,8.93007 -34.08121,12.11077 -13.45213,3.84162 -28.66627,5.83847 -36.81165,4.83152 z"
       id="path41"
       inkscape:connector-curvature="0"
       transform="matrix(0.26458333,0,0,0.26458333,-32.00668,-23.090975)" />
    <path
       style="opacity:0;fill:#000000;fill-opacity:1;stroke-width:0.35714287"
       d="m 599.42637,322.81071 c 0.0821,-0.0821 4.62166,-1.92979 10.0879,-4.10596 41.66273,-16.58643 79.44356,-26.35192 116.13187,-30.01744 12.80105,-1.27895 16.58224,-1.4821 31.42857,-1.68855 43.45858,-0.60433 79.1784,4.71509 116.07143,17.28542 4.27719,1.45734 6.10344,2.24243 6.17976,2.65663 0.0879,0.47716 -0.71969,0.28888 -4.28571,-0.99914 -24.73008,-8.9323 -51.50545,-14.50615 -82.42977,-17.15948 -9.22592,-0.79159 -44.83519,-0.91307 -55.35714,-0.18886 -27.63514,1.9021 -43.23143,4.6061 -68.75,11.91949 -13.45836,3.85705 -41.08087,12.84709 -62.28541,20.27147 -5.66811,1.98458 -7.2096,2.44453 -6.7915,2.02642 z"
       id="path43"
       inkscape:connector-curvature="0"
       transform="matrix(0.26458333,0,0,0.26458333,-32.00668,-23.090975)" />
    <path
       style="opacity:0;fill:#000000;fill-opacity:1;stroke-width:0.12626907"
       d="m 761.60816,287.89346 c 0.61108,-0.0232 1.57704,-0.0231 2.14658,2.6e-4 0.56953,0.0234 0.0696,0.0423 -1.11106,0.0422 -1.18061,-1.5e-4 -1.6466,-0.0192 -1.03552,-0.0424 z"
       id="path46"
       inkscape:connector-curvature="0"
       transform="matrix(0.26458333,0,0,0.26458333,-32.00668,-23.090975)" />
    <path
       style="opacity:0;fill:#000000;fill-opacity:1;stroke-width:0.12626907"
       d="m 761.60816,287.89346 c 0.61108,-0.0232 1.57704,-0.0231 2.14658,2.6e-4 0.56953,0.0234 0.0696,0.0423 -1.11106,0.0422 -1.18061,-1.5e-4 -1.6466,-0.0192 -1.03552,-0.0424 z"
       id="path48"
       inkscape:connector-curvature="0"
       transform="matrix(0.26458333,0,0,0.26458333,-32.00668,-23.090975)" />
    <path
       style="opacity:0;fill:#000000;fill-opacity:1;stroke-width:0.03156727"
       d="m 784.97655,288.48479 c -3.37708,-0.19235 -7.2978,-0.3427 -11.88507,-0.45576 -4.81331,-0.11863 -12.78299,-0.11162 -18.15118,0.016 -2.88192,0.0685 -7.50003,0.2273 -9.20186,0.31643 -0.3212,0.0168 -0.60886,0.0307 -0.63924,0.0308 -0.0509,1.5e-4 -0.0552,-0.053 -0.0552,-0.67519 v -0.67534 l 0.27621,-0.0196 c 0.15192,-0.0108 0.7805,-0.0403 1.39685,-0.0657 0.61635,-0.0254 1.30531,-0.0539 1.53102,-0.0634 1.50119,-0.0629 4.41525,-0.14841 7.21312,-0.21159 2.31165,-0.0522 11.47271,-0.0524 13.82646,-3e-4 5.5547,0.12294 10.05258,0.29064 14.56829,0.54316 0.60767,0.034 1.38186,0.0772 1.72042,0.0959 0.33856,0.0188 0.64752,0.0407 0.68659,0.0487 0.0706,0.0144 0.071,0.0183 0.071,0.59792 v 0.5834 l -0.18151,-0.004 c -0.0998,-0.002 -0.62898,-0.0299 -1.17588,-0.061 z"
       id="path50"
       inkscape:connector-curvature="0"
       transform="matrix(0.26458333,0,0,0.26458333,-32.00668,-23.090975)" />
    <path
       style="opacity:0;fill:#000000;fill-opacity:1;stroke-width:0.03156727"
       d="m 784.97655,288.48479 c -3.37708,-0.19235 -7.2978,-0.3427 -11.88507,-0.45576 -4.81331,-0.11863 -12.78299,-0.11162 -18.15118,0.016 -2.88192,0.0685 -7.50003,0.2273 -9.20186,0.31643 -0.3212,0.0168 -0.60886,0.0307 -0.63924,0.0308 -0.0509,1.5e-4 -0.0552,-0.053 -0.0552,-0.67519 v -0.67534 l 0.27621,-0.0196 c 0.15192,-0.0108 0.7805,-0.0403 1.39685,-0.0657 0.61635,-0.0254 1.30531,-0.0539 1.53102,-0.0634 1.50119,-0.0629 4.41525,-0.14841 7.21312,-0.21159 2.31165,-0.0522 11.47271,-0.0524 13.82646,-3e-4 5.5547,0.12294 10.05258,0.29064 14.56829,0.54316 0.60767,0.034 1.38186,0.0772 1.72042,0.0959 0.33856,0.0188 0.64752,0.0407 0.68659,0.0487 0.0706,0.0144 0.071,0.0183 0.071,0.59792 v 0.5834 l -0.18151,-0.004 c -0.0998,-0.002 -0.62898,-0.0299 -1.17588,-0.061 z"
       id="path52"
       inkscape:connector-curvature="0"
       transform="matrix(0.26458333,0,0,0.26458333,-32.00668,-23.090975)"
       inkscape:label="path52" />
    <path
       style="opacity:0;fill:#000000;fill-opacity:1;stroke-width:0.03156727"
       d="m 784.97655,288.48479 c -3.37708,-0.19235 -7.2978,-0.3427 -11.88507,-0.45576 -4.81331,-0.11863 -12.78299,-0.11162 -18.15118,0.016 -2.88192,0.0685 -7.50003,0.2273 -9.20186,0.31643 -0.3212,0.0168 -0.60886,0.0307 -0.63924,0.0308 -0.0509,1.5e-4 -0.0552,-0.053 -0.0552,-0.67519 v -0.67534 l 0.27621,-0.0196 c 0.15192,-0.0108 0.7805,-0.0403 1.39685,-0.0657 0.61635,-0.0254 1.30531,-0.0539 1.53102,-0.0634 1.50119,-0.0629 4.41525,-0.14841 7.21312,-0.21159 2.31165,-0.0522 11.47271,-0.0524 13.82646,-3e-4 5.5547,0.12294 10.05258,0.29064 14.56829,0.54316 0.60767,0.034 1.38186,0.0772 1.72042,0.0959 0.33856,0.0188 0.64752,0.0407 0.68659,0.0487 0.0706,0.0144 0.071,0.0183 0.071,0.59792 v 0.5834 l -0.18151,-0.004 c -0.0998,-0.002 -0.62898,-0.0299 -1.17588,-0.061 z"
       id="path54"
       inkscape:connector-curvature="0"
       transform="matrix(0.26458333,0,0,0.26458333,-32.00668,-23.090975)" />
    <path
       style="opacity:0;fill:#000000;fill-opacity:1;stroke-width:0.03156727"
       d="m 784.97655,288.48479 c -3.37708,-0.19235 -7.2978,-0.3427 -11.88507,-0.45576 -4.81331,-0.11863 -12.78299,-0.11162 -18.15118,0.016 -2.88192,0.0685 -7.50003,0.2273 -9.20186,0.31643 -0.3212,0.0168 -0.60886,0.0307 -0.63924,0.0308 -0.0509,1.5e-4 -0.0552,-0.053 -0.0552,-0.67519 v -0.67534 l 0.27621,-0.0196 c 0.15192,-0.0108 0.7805,-0.0403 1.39685,-0.0657 0.61635,-0.0254 1.30531,-0.0539 1.53102,-0.0634 1.50119,-0.0629 4.41525,-0.14841 7.21312,-0.21159 2.31165,-0.0522 11.47271,-0.0524 13.82646,-3e-4 5.5547,0.12294 10.05258,0.29064 14.56829,0.54316 0.60767,0.034 1.38186,0.0772 1.72042,0.0959 0.33856,0.0188 0.64752,0.0407 0.68659,0.0487 0.0706,0.0144 0.071,0.0183 0.071,0.59792 v 0.5834 l -0.18151,-0.004 c -0.0998,-0.002 -0.62898,-0.0299 -1.17588,-0.061 z"
       id="path56"
       inkscape:connector-curvature="0"
       transform="matrix(0.26458333,0,0,0.26458333,-32.00668,-23.090975)" />
    <path
       style="opacity:0;fill:#000000;fill-opacity:1;stroke:url(#linearGradient871);stroke-width:0.03156727"
       d="m 784.97655,288.48479 c -3.37708,-0.19235 -7.2978,-0.3427 -11.88507,-0.45576 -4.81331,-0.11863 -12.78299,-0.11162 -18.15118,0.016 -2.88192,0.0685 -7.50003,0.2273 -9.20186,0.31643 -0.3212,0.0168 -0.60886,0.0307 -0.63924,0.0308 -0.0509,1.5e-4 -0.0552,-0.053 -0.0552,-0.67519 v -0.67534 l 0.27621,-0.0196 c 0.15192,-0.0108 0.7805,-0.0403 1.39685,-0.0657 0.61635,-0.0254 1.30531,-0.0539 1.53102,-0.0634 1.50119,-0.0629 4.41525,-0.14841 7.21312,-0.21159 2.31165,-0.0522 11.47271,-0.0524 13.82646,-3e-4 5.5547,0.12294 10.05258,0.29064 14.56829,0.54316 0.60767,0.034 1.38186,0.0772 1.72042,0.0959 0.33856,0.0188 0.64752,0.0407 0.68659,0.0487 0.0706,0.0144 0.071,0.0183 0.071,0.59792 v 0.5834 l -0.18151,-0.004 c -0.0998,-0.002 -0.62898,-0.0299 -1.17588,-0.061 z"
       id="path60"
       inkscape:connector-curvature="0"
       transform="matrix(0.26458333,0,0,0.26458333,-32.00668,-23.090975)" />
    <path
       style="opacity:0;fill:#000000;fill-opacity:1;stroke:#000000;stroke-width:0.03156727;stroke-opacity:1"
       d="m 762.18656,287.95934 c 0.0478,-0.007 0.12588,-0.007 0.17362,0 0.0477,0.007 0.009,0.0131 -0.0868,0.0131 -0.0955,0 -0.13455,-0.006 -0.0868,-0.0131 z"
       id="path873"
       inkscape:connector-curvature="0"
       transform="matrix(0.26458333,0,0,0.26458333,-32.00668,-23.090975)" />
    <path
       style="opacity:0;fill:#000000;fill-opacity:1;stroke:url(#linearGradient881);stroke-width:0.03023622;stroke-miterlimit:4;stroke-dasharray:none;stroke-opacity:1"
       d="m 748.32064,287.56392 v -0.68682 l 0.22886,-4.2e-4 c 0.12588,-2.3e-4 0.584,-0.0142 1.01805,-0.0311 1.0413,-0.0405 3.74325,-0.11574 5.90308,-0.16449 3.48984,-0.0788 13.51279,-0.043 16.15455,0.0577 l 0.52875,0.0201 v 0.63006 0.63005 l -0.73394,-0.0182 c -3.7921,-0.0943 -11.61898,-0.0729 -16.50179,0.0452 -1.79529,0.0434 -6.0387,0.17281 -6.4634,0.19708 l -0.13416,0.008 z"
       id="path875"
       inkscape:connector-curvature="0"
       transform="matrix(0.26458333,0,0,0.26458333,-32.00668,-23.090975)" />
    <path
       style="opacity:0;fill:#000000;fill-opacity:1;stroke:#000000;stroke-width:0.00095447;stroke-miterlimit:4;stroke-dasharray:none;stroke-opacity:1"
       d="m 784.97655,288.48479 c -3.37708,-0.19235 -7.2978,-0.3427 -11.88507,-0.45576 -4.81331,-0.11863 -12.78299,-0.11162 -18.15118,0.016 -2.88192,0.0685 -7.50003,0.2273 -9.20186,0.31643 -0.3212,0.0168 -0.60886,0.0307 -0.63924,0.0308 -0.0509,1.5e-4 -0.0552,-0.053 -0.0552,-0.67519 v -0.67534 l 0.27621,-0.0196 c 0.15192,-0.0108 0.7805,-0.0403 1.39685,-0.0657 0.61635,-0.0254 1.30531,-0.0539 1.53102,-0.0634 1.50119,-0.0629 4.41525,-0.14841 7.21312,-0.21159 2.31165,-0.0522 11.47271,-0.0524 13.82646,-3e-4 5.5547,0.12294 10.05258,0.29064 14.56829,0.54316 0.60767,0.034 1.38186,0.0772 1.72042,0.0959 0.33856,0.0188 0.64752,0.0407 0.68659,0.0487 0.0706,0.0144 0.071,0.0183 0.071,0.59792 v 0.5834 l -0.18151,-0.004 c -0.0998,-0.002 -0.62898,-0.0299 -1.17588,-0.061 z"
       id="path883"
       inkscape:connector-curvature="0"
       transform="matrix(0.26458333,0,0,0.26458333,-32.00668,-23.090975)" />
    <path
       style="opacity:0;fill:#000000;fill-opacity:1;stroke:#000000;stroke-width:0.00095447;stroke-miterlimit:4;stroke-dasharray:none;stroke-opacity:1"
       d="m 733.49197,288.40118 v -0.61413 l 0.10259,-0.0168 c 0.39947,-0.0652 6.16162,-0.45602 9.08348,-0.61603 9.02242,-0.4941 18.86688,-0.65081 27.85811,-0.44348 2.71214,0.0625 3.98211,0.0976 4.11164,0.11366 l 0.13416,0.0166 v 0.61679 0.61679 l -0.73394,-0.0208 c -3.4873,-0.0989 -11.02389,-0.141 -15.00234,-0.0838 -5.46306,0.0785 -9.45643,0.20642 -15.9099,0.50978 -2.89422,0.13605 -6.93335,0.35859 -8.87041,0.48871 -0.38196,0.0257 -0.71223,0.0467 -0.73393,0.0468 -0.0302,8e-5 -0.0395,-0.14371 -0.0395,-0.61403 z"
       id="path907"
       inkscape:connector-curvature="0"
       transform="matrix(0.26458333,0,0,0.26458333,-32.00668,-23.090975)" />
    <path
       style="opacity:0;fill:#000000;fill-opacity:1;stroke:#000000;stroke-width:0.00095447;stroke-miterlimit:4;stroke-dasharray:none;stroke-opacity:1"
       d="m 733.49197,288.40118 v -0.61413 l 0.10259,-0.0168 c 0.39947,-0.0652 6.16162,-0.45602 9.08348,-0.61603 9.02242,-0.4941 18.86688,-0.65081 27.85811,-0.44348 2.71214,0.0625 3.98211,0.0976 4.11164,0.11366 l 0.13416,0.0166 v 0.61679 0.61679 l -0.73394,-0.0208 c -3.4873,-0.0989 -11.02389,-0.141 -15.00234,-0.0838 -5.46306,0.0785 -9.45643,0.20642 -15.9099,0.50978 -2.89422,0.13605 -6.93335,0.35859 -8.87041,0.48871 -0.38196,0.0257 -0.71223,0.0467 -0.73393,0.0468 -0.0302,8e-5 -0.0395,-0.14371 -0.0395,-0.61403 z"
       id="path909"
       inkscape:connector-curvature="0"
       transform="matrix(0.26458333,0,0,0.26458333,-32.00668,-23.090975)" />
    <path
       style="opacity:0;fill:#000000;fill-opacity:1;stroke:#000000;stroke-width:0.00095447;stroke-miterlimit:4;stroke-dasharray:none;stroke-opacity:1"
       d="m 733.49197,288.40118 v -0.61413 l 0.10259,-0.0168 c 0.39947,-0.0652 6.16162,-0.45602 9.08348,-0.61603 9.02242,-0.4941 18.86688,-0.65081 27.85811,-0.44348 2.71214,0.0625 3.98211,0.0976 4.11164,0.11366 l 0.13416,0.0166 v 0.61679 0.61679 l -0.73394,-0.0208 c -3.4873,-0.0989 -11.02389,-0.141 -15.00234,-0.0838 -5.46306,0.0785 -9.45643,0.20642 -15.9099,0.50978 -2.89422,0.13605 -6.93335,0.35859 -8.87041,0.48871 -0.38196,0.0257 -0.71223,0.0467 -0.73393,0.0468 -0.0302,8e-5 -0.0395,-0.14371 -0.0395,-0.61403 z"
       id="path911"
       inkscape:connector-curvature="0"
       transform="matrix(0.26458333,0,0,0.26458333,-32.00668,-23.090975)" />
    <path
       style="opacity:0;fill:#000000;fill-opacity:1;stroke:#000000;stroke-width:0.00095447;stroke-miterlimit:4;stroke-dasharray:none;stroke-opacity:1"
       d="m 733.49197,288.40118 v -0.61413 l 0.10259,-0.0168 c 0.39947,-0.0652 6.16162,-0.45602 9.08348,-0.61603 9.02242,-0.4941 18.86688,-0.65081 27.85811,-0.44348 2.71214,0.0625 3.98211,0.0976 4.11164,0.11366 l 0.13416,0.0166 v 0.61679 0.61679 l -0.73394,-0.0208 c -3.4873,-0.0989 -11.02389,-0.141 -15.00234,-0.0838 -5.46306,0.0785 -9.45643,0.20642 -15.9099,0.50978 -2.89422,0.13605 -6.93335,0.35859 -8.87041,0.48871 -0.38196,0.0257 -0.71223,0.0467 -0.73393,0.0468 -0.0302,8e-5 -0.0395,-0.14371 -0.0395,-0.61403 z"
       id="path913"
       inkscape:connector-curvature="0"
       transform="matrix(0.26458333,0,0,0.26458333,-32.00668,-23.090975)" />
    <path
       style="opacity:0;fill:#000000;fill-opacity:1;stroke:#000000;stroke-width:0.00095447;stroke-miterlimit:4;stroke-dasharray:none;stroke-opacity:1"
       d="m 733.49197,288.40118 v -0.61413 l 0.10259,-0.0168 c 0.39947,-0.0652 6.16162,-0.45602 9.08348,-0.61603 9.02242,-0.4941 18.86688,-0.65081 27.85811,-0.44348 2.71214,0.0625 3.98211,0.0976 4.11164,0.11366 l 0.13416,0.0166 v 0.61679 0.61679 l -0.73394,-0.0208 c -3.4873,-0.0989 -11.02389,-0.141 -15.00234,-0.0838 -5.46306,0.0785 -9.45643,0.20642 -15.9099,0.50978 -2.89422,0.13605 -6.93335,0.35859 -8.87041,0.48871 -0.38196,0.0257 -0.71223,0.0467 -0.73393,0.0468 -0.0302,8e-5 -0.0395,-0.14371 -0.0395,-0.61403 z"
       id="path915"
       inkscape:connector-curvature="0"
       transform="matrix(0.26458333,0,0,0.26458333,-32.00668,-23.090975)" />
    <path
       style="opacity:0;fill:#000000;fill-opacity:1;stroke:#000000;stroke-width:0.00095447;stroke-miterlimit:4;stroke-dasharray:none;stroke-opacity:1"
       d="m 733.49197,288.40118 v -0.61413 l 0.10259,-0.0168 c 0.39947,-0.0652 6.16162,-0.45602 9.08348,-0.61603 9.02242,-0.4941 18.86688,-0.65081 27.85811,-0.44348 2.71214,0.0625 3.98211,0.0976 4.11164,0.11366 l 0.13416,0.0166 v 0.61679 0.61679 l -0.73394,-0.0208 c -3.4873,-0.0989 -11.02389,-0.141 -15.00234,-0.0838 -5.46306,0.0785 -9.45643,0.20642 -15.9099,0.50978 -2.89422,0.13605 -6.93335,0.35859 -8.87041,0.48871 -0.38196,0.0257 -0.71223,0.0467 -0.73393,0.0468 -0.0302,8e-5 -0.0395,-0.14371 -0.0395,-0.61403 z"
       id="path917"
       inkscape:connector-curvature="0"
       transform="matrix(0.26458333,0,0,0.26458333,-32.00668,-23.090975)" />
  </g>
</svg>
