<?xml version="1.0" encoding="UTF-8" standalone="no"?>
<!-- Created with Inkscape (http://www.inkscape.org/) -->

<svg
   xmlns:dc="http://purl.org/dc/elements/1.1/"
   xmlns:cc="http://creativecommons.org/ns#"
   xmlns:rdf="http://www.w3.org/1999/02/22-rdf-syntax-ns#"
   xmlns:svg="http://www.w3.org/2000/svg"
   xmlns="http://www.w3.org/2000/svg"
   xmlns:sodipodi="http://sodipodi.sourceforge.net/DTD/sodipodi-0.dtd"
   xmlns:inkscape="http://www.inkscape.org/namespaces/inkscape"
   width="166.14058mm"
   height="165.89375mm"
   viewBox="0 0 166.14058 165.89375"
   version="1.1"
   id="svg1089"
   inkscape:version="0.92.4 (5da689c313, 2019-01-14)"
   sodipodi:docname="ex_2.svg">
  <defs
     id="defs1083" />
  <sodipodi:namedview
     id="base"
     pagecolor="#ffffff"
     bordercolor="#666666"
     borderopacity="1.0"
     inkscape:pageopacity="0.0"
     inkscape:pageshadow="2"
     inkscape:zoom="0.98994949"
     inkscape:cx="410.67289"
     inkscape:cy="295.16222"
     inkscape:document-units="mm"
     inkscape:current-layer="layer1"
     showgrid="false"
     fit-margin-top="0"
     fit-margin-left="0"
     fit-margin-right="0"
     fit-margin-bottom="0"
     inkscape:window-width="958"
     inkscape:window-height="981"
     inkscape:window-x="952"
     inkscape:window-y="0"
     inkscape:window-maximized="0" />
  <metadata
     id="metadata1086">
    <rdf:RDF>
      <cc:Work
         rdf:about="">
        <dc:format>image/svg+xml</dc:format>
        <dc:type
           rdf:resource="http://purl.org/dc/dcmitype/StillImage" />
        <dc:title />
      </cc:Work>
    </rdf:RDF>
  </metadata>
  <g
     inkscape:label="Capa 1"
     inkscape:groupmode="layer"
     id="layer1"
     transform="translate(-19.592206,-54.509363)">
    <path
       style="fill:#000000;stroke-width:0.26458335"
       d="m 41.556457,215.98785 c -3.907337,-3.9708 -4.557778,-4.51962 -6.461368,-5.45189 -6.927422,-3.39264 -12.209844,-9.33207 -14.285262,-16.06201 -1.631278,-5.28973 -1.622849,-11.87086 0.02162,-16.87016 1.158634,-3.52236 4.20062,-8.395 6.755159,-10.82038 4.409917,-4.18695 10.731744,-7.06381 16.305891,-7.42028 l 2.447396,-0.15651 v 17.20849 c 0,15.44781 0.04282,17.22491 0.418515,17.36908 0.230182,0.0883 4.57517,0.1606 9.655524,0.1606 h 9.237012 l 1.869745,3.73237 c 1.028358,2.0528 1.832827,3.76398 1.787702,3.80262 -0.04512,0.0386 -5.142196,2.60563 -11.326831,5.70443 -6.184636,3.0988 -11.332266,5.76316 -11.439179,5.92082 -0.106913,0.15764 -0.19621,1.86421 -0.198438,3.79236 -0.0021,1.92815 -0.102764,3.50573 -0.223411,3.50573 -0.12065,0 -2.174478,-1.98687 -4.564063,-4.41527 z"
       id="caballo02"
       inkscape:connector-curvature="0"
       inkscape:label="#path69" />
    <path
       style="fill:#000000;stroke-width:0.26458335"
       d="m 159.18997,220.18793 c -0.0757,-0.0757 -0.13759,-1.65745 -0.13759,-3.51506 v -3.37747 l -0.7276,-0.49504 c -0.40018,-0.27227 -5.5146,-2.86999 -11.36538,-5.7727 -5.85079,-2.90272 -10.69218,-5.40911 -10.75865,-5.56977 -0.0665,-0.16066 0.68044,-1.88707 1.65981,-3.83646 l 1.78068,-3.54435 9.63942,-0.14057 c 5.30169,-0.0773 9.6692,-0.16662 9.70558,-0.19844 0.0364,-0.0318 0.0661,-7.79693 0.0661,-17.25578 v -17.19792 l 1.38907,4e-5 c 3.02035,1e-4 6.97445,1.05887 10.51718,2.81613 3.09188,1.53362 4.26126,2.37486 6.83259,4.91524 3.53099,3.4885 5.69877,7.11388 7.09393,11.86386 0.68181,2.32131 0.7336,2.83331 0.73433,7.25994 7.9e-4,4.44699 -0.0474,4.91851 -0.72583,7.11739 -1.62525,5.26744 -4.00022,9.16634 -7.71569,12.66657 -1.54606,1.4565 -4.99783,3.7169 -7.27766,4.76579 -1.79173,0.82434 -2.40125,1.33638 -6.27856,5.27458 -2.3618,2.39888 -4.35609,4.2997 -4.43177,4.22402 z"
       id="caballo04"
       inkscape:connector-curvature="0"
       inkscape:label="#path67" />
    <path
       style="fill:#000000;stroke-width:0.26458335"
       d="m 58.16461,182.92398 c -1.407409,-0.73742 -1.453711,-2.25176 -0.109077,-3.56745 0.743479,-0.72748 5.427554,-5.05126 7.725371,-7.13114 0.869905,-0.78741 2.477249,-2.26115 3.571875,-3.27499 3.469709,-3.21363 62.913561,-62.84249 65.852051,-66.05699 1.54725,-1.69259 4.39628,-4.805818 6.33117,-6.918297 1.9349,-2.112481 3.87725,-3.989678 4.31633,-4.171553 1.13063,-0.46832 2.18504,0.314481 2.30302,1.709772 0.073,0.863076 -0.0574,1.119378 -1.06368,2.090383 -2.19703,2.120098 -4.86044,4.592475 -7.88304,7.317635 -3.16371,2.85238 -65.339818,64.89817 -68.130207,67.9874 -5.448075,6.03156 -10.883263,11.73205 -11.480504,12.0409 -0.593349,0.30683 -0.805971,0.30302 -1.433309,-0.0257 z"
       id="palo"
       inkscape:connector-curvature="0"
       inkscape:label="#path65" />
    <path
       style="fill:#000000;stroke-width:0.26458335"
       d="m 120.29092,175.71192 c -3.05081,-0.46427 -6.11736,-1.98241 -9.01029,-4.46068 l -2.01553,-1.72664 -3.09002,3.08197 c -1.69951,1.69508 -3.27243,3.08197 -3.49537,3.08197 -0.44256,0 -2.36483,-1.84482 -2.36483,-2.26955 0,-0.14457 3.47525,-3.73218 7.72279,-7.97246 l 7.72278,-7.70959 -0.73295,-1.01222 c -0.40313,-0.55673 -1.16971,-1.56133 -1.70352,-2.23247 -3.53401,-4.44316 -5.60076,-7.14365 -5.60076,-7.31816 0,-0.11126 1.22794,-1.42606 2.72875,-2.92177 3.01922,-3.00895 2.58281,-2.85488 5.07248,-1.79072 0.43875,0.18754 1.45257,0.61416 2.25293,0.94806 0.80037,0.3339 1.95993,0.82762 2.57681,1.09715 0.61688,0.26953 1.27767,0.49006 1.46843,0.49006 0.19077,0 0.45996,0.10281 0.5982,0.22846 0.13825,0.12565 1.12091,0.56368 2.18371,0.97338 l 1.93235,0.74493 2.76411,-2.7547 2.76411,-2.75471 2.86345,2.85457 c 3.24407,3.23402 4.27102,4.75836 5.38707,7.99625 3.26299,9.46656 -1.88873,19.73741 -11.44604,22.81967 -1.93924,0.62541 -6.38919,0.94038 -8.57866,0.6072 z"
       id="cap2"
       inkscape:connector-curvature="0"
       inkscape:label="#path63" />
    <path
       style="fill:#000000;stroke-width:0.26458335"
       d="m 70.837615,131.17239 c -3.509976,-3.52701 -4.838078,-5.53009 -6.020795,-9.08069 -0.886208,-2.66047 -0.884391,-7.88748 0.0037,-10.56462 1.048782,-3.16163 2.11042,-4.86926 4.527793,-7.28288 2.343915,-2.34028 3.754263,-3.24844 6.810005,-4.385128 2.145906,-0.798248 6.156196,-1.111863 8.839581,-0.691284 3.400857,0.533034 7.140224,2.452322 9.829835,5.045312 l 1.259703,1.21444 3.109896,-3.10179 c 1.710437,-1.70599 3.292297,-3.101797 3.515247,-3.101797 0.41015,0 2.36482,1.830817 2.36482,2.214987 0,0.11456 -3.42304,3.65846 -7.606767,7.87534 -4.183724,4.21687 -7.647122,7.78128 -7.696441,7.92091 -0.04932,0.13962 0.248338,0.65288 0.661459,1.14057 0.41312,0.48769 1.108316,1.34844 1.544878,1.91278 0.436563,0.56433 1.895078,2.4234 3.241146,4.13126 1.346068,1.70786 2.447396,3.20655 2.447396,3.33043 0,0.12387 -1.188313,1.37614 -2.640695,2.78281 -2.600929,2.51907 -3.181163,2.84068 -4.175917,2.31462 -0.772715,-0.40864 -2.639745,-1.1831 -7.414175,-3.07545 l -4.573498,-1.81271 -2.707063,2.69785 c -1.488885,1.48382 -2.806235,2.69785 -2.92744,2.69785 -0.121208,0 -1.197899,-0.98226 -2.392646,-2.18281 z"
       id="cap1"
       inkscape:connector-curvature="0"
       inkscape:label="#path59" />
    <path
       style="fill:#000000;stroke-width:0.26458335"
       d="m 42.238839,115.36069 c -0.436563,-0.11737 -1.448594,-0.35441 -2.248959,-0.52676 -2.10294,-0.45285 -3.033495,-0.78996 -5.565883,-2.01639 -7.446921,-3.60653 -12.825844,-10.68758 -14.446153,-19.017545 -0.462944,-2.379988 -0.462944,-7.674179 0,-10.054167 1.612276,-8.288668 6.831182,-15.204202 14.354334,-19.020807 1.035606,-0.525379 1.989384,-0.955234 2.119501,-0.955234 0.130119,0 2.317623,-2.083594 4.861118,-4.630209 2.543495,-2.546614 4.715111,-4.630208 4.82581,-4.630208 0.110702,0 0.201274,1.592765 0.201274,3.539478 0,2.723035 0.08606,3.610897 0.373067,3.849097 0.205188,0.17029 5.339647,2.799172 11.409911,5.84196 6.070264,3.04279 11.088757,5.584256 11.152204,5.647703 0.06345,0.06345 -0.725284,1.793438 -1.752733,3.844425 l -1.868093,3.729069 -9.591032,0.06945 -9.591033,0.06945 -0.06806,17.264062 -0.06806,17.264066 -1.651731,-0.027 c -0.908452,-0.0149 -2.008918,-0.12304 -2.44548,-0.24042 z"
       id="caballo01"
       inkscape:connector-curvature="0"
       inkscape:label="#path55" />
    <path
       style="fill:#000000;stroke-width:0.26458335"
       d="m 158.98815,98.364057 -0.0681,-17.264062 -9.59103,-0.06945 -9.59103,-0.06945 -1.8681,-3.729069 c -1.02744,-2.050987 -1.79366,-3.805674 -1.70271,-3.899302 0.091,-0.09363 5.24757,-2.73008 11.45913,-5.858778 l 11.29374,-5.688541 0.0736,-3.638021 c 0.0405,-2.000912 0.14677,-3.638021 0.23618,-3.638021 0.0894,0 2.22722,2.083594 4.75068,4.630208 2.52347,2.546615 4.71044,4.630209 4.85994,4.630209 0.39203,0 2.56351,1.047027 4.10251,1.978116 5.12972,3.103458 9.50943,8.57229 11.4572,14.306303 1.14269,3.363962 1.45879,5.790091 1.29037,9.90397 -0.16368,3.998283 -0.62448,6.112418 -2.07723,9.530361 -2.44557,5.7538 -7.48624,10.94155 -13.19229,13.57722 -3.21019,1.48282 -7.46914,2.56222 -10.10999,2.56232 l -1.25485,4e-5 z"
       id="caballo03"
       inkscape:connector-curvature="0"
       inkscape:label="#caballo1" />
  </g>
</svg>
