<?xml version="1.0" encoding="UTF-8" standalone="no"?>
<!-- Created with Inkscape (http://www.inkscape.org/) -->

<svg
   xmlns:osb="http://www.openswatchbook.org/uri/2009/osb"
   xmlns:dc="http://purl.org/dc/elements/1.1/"
   xmlns:cc="http://creativecommons.org/ns#"
   xmlns:rdf="http://www.w3.org/1999/02/22-rdf-syntax-ns#"
   xmlns:svg="http://www.w3.org/2000/svg"
   xmlns="http://www.w3.org/2000/svg"
   xmlns:xlink="http://www.w3.org/1999/xlink"
   xmlns:sodipodi="http://sodipodi.sourceforge.net/DTD/sodipodi-0.dtd"
   xmlns:inkscape="http://www.inkscape.org/namespaces/inkscape"
   width="94.389099mm"
   height="93.756645mm"
   viewBox="0 0 94.389098 93.756645"
   version="1.1"
   id="svg1695"
   inkscape:version="0.92.4 (5da689c313, 2019-01-14)"
   sodipodi:docname="ex_3.svg">
  <defs
     id="defs1689">
    <linearGradient
       id="linearGradient901"
       osb:paint="solid">
      <stop
         style="stop-color:#3d9500;stop-opacity:1;"
         offset="0"
         id="stop899" />
    </linearGradient>
    <linearGradient
       inkscape:collect="always"
       xlink:href="#linearGradient901"
       id="linearGradient903"
       x1="63.14307"
       y1="143.4338"
       x2="157.79409"
       y2="143.4338"
       gradientUnits="userSpaceOnUse" />
  </defs>
  <sodipodi:namedview
     id="base"
     pagecolor="#ffffff"
     bordercolor="#666666"
     borderopacity="1.0"
     inkscape:pageopacity="0.0"
     inkscape:pageshadow="2"
     inkscape:zoom="1.979899"
     inkscape:cx="128.58693"
     inkscape:cy="186.59915"
     inkscape:document-units="mm"
     inkscape:current-layer="g906"
     showgrid="false"
     fit-margin-top="0"
     fit-margin-left="0"
     fit-margin-right="0"
     fit-margin-bottom="0"
     inkscape:window-width="958"
     inkscape:window-height="981"
     inkscape:window-x="952"
     inkscape:window-y="0"
     inkscape:window-maximized="0" />
  <metadata
     id="metadata1692">
    <rdf:RDF>
      <cc:Work
         rdf:about="">
        <dc:format>image/svg+xml</dc:format>
        <dc:type
           rdf:resource="http://purl.org/dc/dcmitype/StillImage" />
        <dc:title />
      </cc:Work>
    </rdf:RDF>
  </metadata>
  <g
     inkscape:label="Capa 1"
     inkscape:groupmode="layer"
     id="layer1"
     transform="translate(-63.274488,-96.555734)">
    <g
       id="g84">
      <g
         id="g906"
         style="display:inline">
        <path
           inkscape:label="#path1997"
           style="display:inline;fill:none;stroke:url(#linearGradient903);stroke-width:1.66499996;stroke-miterlimit:4;stroke-dasharray:none;stroke-opacity:0.87155917"
           d="m 103.44671,189.94041 c -12.024014,-1.84075 -23.427354,-8.61469 -30.548434,-18.14672 -11.97661,-16.03146 -12.83999,-36.86472 -2.22416,-53.66873 7.08459,-11.21434 18.60748,-18.867026 31.736934,-21.077397 4.20324,-0.707625 12.82968,-0.64111 17.04295,0.131408 1.41602,0.259632 2.81113,0.585753 4.18887,0.979829 4.61941,1.321288 9.04358,3.40652 13.40592,6.31097 4.16863,2.77547 9.2296,7.79041 11.90625,11.79797 10.66757,15.97176 11.57391,34.17819 2.50253,50.2702 -2.68017,4.75443 -6.55434,9.43787 -10.65145,12.87642 -6.87545,5.77031 -15.03895,9.40309 -23.73337,10.5614 -3.47859,0.46344 -10.48667,0.44526 -13.62604,-0.0354 z m 16.53646,-5.21962 c 8.7409,-2.10628 15.73853,-6.13615 21.49632,-12.37953 5.60817,-6.08116 9.04662,-12.83637 10.82946,-21.27568 0.81749,-3.86967 0.88842,-11.94436 0.13596,-15.47812 -1.31532,-6.17717 -3.91682,-12.24507 -7.25723,-16.92722 -2.302,-3.22664 -6.67548,-7.59349 -9.8648,-9.84984 -4.44349,-3.14365 -9.91674,-5.64621 -14.97706,-6.84805 -2.71483,-0.64477 -3.13789,-0.55786 -2.90688,0.59718 0.22856,1.14281 0.55138,1.45913 1.69376,1.65968 2.14017,0.3757 6.4081,1.8558 8.88456,3.08113 3.68436,1.82299 6.76498,3.96645 9.6253,6.69715 2.26807,2.16531 5.29396,5.6397 5.06085,5.811 -0.0541,0.0398 -0.9318,0.22626 -1.95045,0.41446 -2.58323,0.47725 -8.73329,2.50289 -11.74173,3.86736 -1.38644,0.62882 -2.61571,1.08464 -2.73172,1.01294 -0.11601,-0.0717 -0.21093,-0.46525 -0.21093,-0.87456 0,-1.52319 -1.34558,-5.97204 -2.60143,-8.60107 -2.3119,-4.83975 -4.16288,-7.35136 -9.79613,-13.29244 l -3.11519,-3.285426 -3.96387,4.055856 c -5.27685,5.3993 -8.193424,9.69797 -10.008054,14.75064 -0.80338,2.23693 -1.47157,5.17005 -1.47157,6.45962 0,0.97975 -0.21445,1.31424 -0.63712,0.99374 -1.36756,-1.03699 -10.3148,-4.27504 -13.78814,-4.98999 -1.23392,-0.25399 -2.24305,-0.58381 -2.2425,-0.73292 0.004,-1.06825 3.88409,-5.23166 7.34002,-7.87577 4.21422,-3.22427 8.6255,-5.48346 13.37721,-6.85099 1.448394,-0.41685 2.788154,-0.7579 2.977254,-0.7579 0.62331,0 1.17536,-0.81664 1.17536,-1.7387 0,-1.0955 0.0126,-1.09448 -3.26039,-0.26422 -9.250334,2.34655 -18.079664,8.1886 -23.711064,15.68877 -4.89607,6.52082 -7.76118,14.1297 -8.49267,22.55406 -0.61052,7.03109 1.38228,16.05374 5.05728,22.89755 5.71983,10.65178 15.95906,18.53922 27.681104,21.3232 3.67848,0.87364 5.18098,0.99726 11.06011,0.91 4.85708,-0.0721 5.90584,-0.16671 8.33438,-0.75191 z m -16.26389,-1.92836 c -5.092294,-0.79127 -11.060054,-3.1845 -15.730314,-6.30826 -11.35324,-7.59377 -18.22328,-21.1134 -17.67418,-34.7812 0.21752,-5.41418 1.3355,-10.31493 3.33941,-14.6385 1.0274,-2.2167 2.52062,-4.37259 2.76013,-3.98505 0.0717,0.11593 -0.10659,1.93587 -0.3961,4.0443 -1.4067,10.24495 0.68605,18.55187 6.68736,26.5447 2.34941,3.12906 4.17799,4.90402 7.50051,7.2806 4.1741,2.9857 9.61511,5.54701 14.999574,7.06091 4.65167,1.30787 4.19417,0.40143 4.19417,8.30986 0,6.89267 0,6.89267 -1.65365,6.86704 -0.90951,-0.0141 -2.72162,-0.19157 -4.02691,-0.3944 z m 7.79722,-4.26192 c 0,-2.61897 0.0768,-5.84322 0.17059,-7.165 0.17059,-2.40325 0.17059,-2.40325 2.18281,-2.94689 6.27222,-1.69455 12.14189,-4.25724 16.48213,-7.19606 5.6291,-3.81153 10.17524,-9.60922 12.8839,-16.43086 2.01394,-5.072 2.6533,-12.44915 1.63222,-18.83301 -0.32094,-2.00661 -0.533,-3.69891 -0.47122,-3.76069 0.0618,-0.0618 0.55238,0.60063 1.09023,1.47202 3.00415,4.86711 4.82744,11.29264 5.10842,18.00285 0.48751,11.64235 -4.33593,23.08956 -13.20885,31.34783 -6.23448,5.80259 -14.90337,9.54406 -23.42283,10.10922 -2.4474,0.16235 -2.4474,0.16235 -2.4474,-4.59941 z m -6.32181,-12.93594 c -2.79927,-0.82739 -7.573144,-2.76819 -9.817774,-3.99138 -2.67656,-1.45857 -6.88761,-4.64011 -8.68558,-6.56215 -5.07612,-5.42638 -7.72359,-11.5179 -8.51233,-19.58587 -0.22475,-2.29897 -0.20336,-3.67969 0.10182,-6.57204 0.21249,-2.01389 0.45437,-3.72965 0.53751,-3.81279 0.24077,-0.24076 1.01581,0.5764 3.37357,3.55686 1.21264,1.5329 3.00847,3.68551 3.99074,4.78357 1.64379,1.83757 2.04581,2.44127 1.62569,2.44127 -0.42624,0 -3.61311,-0.902 -5.24176,-1.48361 -1.99909,-0.7139 -2.25911,-0.62807 -2.26686,0.7483 -0.004,0.77984 -0.26452,0.67794 8.21675,3.21854 2.25536,0.6756 2.27699,0.69046 3.9833,2.73605 2.3013,2.75889 2.33469,2.82229 1.39338,2.64603 -0.42085,-0.0788 -1.42003,-0.31979 -2.2204,-0.5355 -0.80036,-0.21572 -3.04698,-0.77638 -4.99248,-1.2459 -3.77287,-0.91054 -3.98991,-0.88648 -3.9993,0.44326 -0.005,0.6703 0.52086,0.86539 6.21366,2.30642 4.49695,1.13832 7.99335,2.38726 8.80489,3.14518 0.49661,0.46379 3.144694,4.17457 3.870654,5.42397 0.10773,0.18542 -0.73566,-0.12984 -1.874214,-0.70057 -2.20783,-1.10673 -4.4018,-1.85014 -9.46326,-3.20654 -3.03857,-0.8143 -3.1735,-0.82812 -3.51571,-0.36011 -0.7745,1.05919 -0.3487,1.50929 2.04535,2.16209 1.23692,0.33728 3.38005,0.92353 4.7625,1.30278 3.8827,1.06513 6.26002,2.25301 9.589454,4.7916 1.49965,1.14343 1.90509,1.76916 3.3883,5.22938 0.67434,1.57314 1.32117,3.80877 1.09705,3.79163 -0.1013,-0.008 -1.18353,-0.30946 -2.40495,-0.67047 z m 8.21336,-0.79129 c 0.36436,-1.31962 2.15629,-5.19342 2.85857,-6.17968 0.86587,-1.21601 3.90994,-3.23285 6.36238,-4.21538 1.23693,-0.49555 4.43217,-1.53015 7.10053,-2.29909 2.66837,-0.76894 4.91681,-1.46332 4.99655,-1.54306 0.16962,-0.16962 -0.42581,-1.69992 -0.73602,-1.89164 -0.11644,-0.072 -0.96414,0.1011 -1.88378,0.38458 -0.91964,0.28348 -3.33802,1.00948 -5.37419,1.61333 -2.03616,0.60385 -4.5663,1.49719 -5.62252,1.98519 -2.29727,1.0614 -2.29871,1.06868 0.56199,-2.84735 1.27363,-1.7435 2.09766,-2.62801 2.54494,-2.73178 0.3638,-0.0844 1.3163,-0.38264 2.11667,-0.66275 0.80036,-0.28011 3.59833,-1.0955 6.21771,-1.81197 6.50513,-1.77934 6.24166,-1.66015 5.94632,-2.68992 -0.1328,-0.46306 -0.30384,-0.9043 -0.38008,-0.98054 -0.0762,-0.0763 -1.18124,0.17415 -2.45556,0.55643 -2.7083,0.81245 -8.99644,2.56447 -9.20412,2.56447 -0.29984,0 0.47631,-1.11315 2.16066,-3.09879 1.74791,-2.06058 1.74791,-2.06058 3.89868,-2.61055 1.18292,-0.30248 3.49022,-0.99693 5.12733,-1.54323 2.97656,-0.99326 2.97656,-0.99326 2.97656,-1.88181 0,-0.4887 -0.10518,-0.95355 -0.23372,-1.033 -0.12854,-0.0794 -1.70496,0.33347 -3.50314,0.91759 -1.79819,0.58412 -3.43059,1.02904 -3.62757,0.98872 -0.20897,-0.0428 1.54906,-2.35927 4.22106,-5.56194 2.87348,-3.44417 4.64502,-5.36599 4.75594,-5.15937 0.29249,0.54484 0.76879,5.29493 0.76712,7.6504 -0.006,8.3189 -3.62857,17.12751 -9.40417,22.86637 -2.51605,2.50005 -6.3856,5.16037 -9.92029,6.82022 -2.78333,1.30702 -7.72474,3.01033 -9.43557,3.25245 -1.11264,0.15746 -1.11264,0.15746 -0.83228,-0.8579 z m -4.52433,-2.36061 c -1.56002,-3.50981 -2.40276,-5.16081 -3.9841,-7.80521 -1.00073,-1.67349 -2.29172,-3.67474 -2.86886,-4.44723 -1.04935,-1.40451 -1.04935,-1.40451 -0.28598,-3.49619 0.75668,-2.07335 1.30432,-5.93476 1.30483,-9.20038 1.9e-4,-1.14609 -0.12153,-1.52285 -0.66875,-2.07006 -1.14523,-1.14523 -1.30048,-0.79356 -1.48343,3.36018 -0.15311,3.47622 -0.73565,6.91488 -1.264254,7.46264 -0.15844,0.16419 -2.23253,-2.14672 -3.79851,-4.23223 -0.14815,-0.1973 -0.0869,-1.00954 0.15959,-2.11667 0.9794,-4.39892 0.86648,-8.67113 -0.25895,-9.79656 -0.3509,-0.3509 -0.76074,-0.59709 -0.91075,-0.54709 -0.16978,0.0566 -0.29181,1.73713 -0.32322,4.45132 -0.0307,2.64882 -0.16665,4.55679 -0.34645,4.86074 -0.26312,0.44478 -0.7937,-0.0987 -4.77804,-4.89479 -3.83478,-4.616 -5.48161,-6.67073 -8.37564,-10.45018 -0.59653,-0.77903 -0.59219,-0.77902 2.35125,0.01 4.50938,1.20814 10.73429,3.89852 14.27342,6.16892 5.092574,3.26695 7.843964,6.53519 9.968554,11.84113 1.40032,3.49717 1.58578,4.87425 1.72819,12.83229 0.0742,4.14734 0.0852,7.83828 0.0244,8.20208 -0.11052,0.66146 -0.11052,0.66146 -0.46333,-0.13229 z m 2.63278,-7.72216 c 0,-9.28679 0.12208,-10.13545 1.99973,-13.90169 3.54931,-7.11936 8.246,-11.2017 17.09362,-14.8577 3.70772,-1.53211 9.58237,-3.32572 9.88887,-3.01922 0.0627,0.0627 -0.57559,0.93936 -1.41851,1.94805 -0.84292,1.00868 -3.29104,3.97709 -5.44026,6.59647 -2.14923,2.61937 -4.46412,5.44041 -5.14421,6.26898 -0.68009,0.82857 -1.32356,1.51318 -1.42993,1.52136 -0.42065,0.0323 -0.60011,-1.61911 -0.59501,-5.47524 0.005,-3.43809 -0.0541,-4.0343 -0.39687,-4.03085 -1.34651,0.0136 -1.71636,1.16698 -1.69553,5.28762 0.015,2.96179 0.11485,3.83644 0.58478,5.12082 0.55097,1.5059 0.55309,1.56104 0.0762,1.98437 -0.26977,0.23949 -1.17332,1.2978 -2.0079,2.35179 -0.83459,1.054 -1.61451,1.85636 -1.73317,1.78302 -0.46463,-0.28715 -1.09247,-4.13175 -1.24069,-7.59735 -0.14859,-3.47424 -0.18143,-3.64246 -0.71045,-3.6386 -1.17837,0.009 -1.26469,0.2715 -1.26846,3.8631 -0.004,3.54374 0.60614,7.08971 1.5249,8.86641 0.39545,0.76471 0.38937,0.84873 -0.10006,1.3825 -1.68834,1.84132 -7.45791,12.11877 -7.45791,13.28493 0,0.20914 -0.11906,0.38026 -0.26458,0.38026 -0.17065,0 -0.26459,-2.88273 -0.26459,-8.11903 z m -2.03797,-15.49503 c -0.29849,-0.32742 -1.23641,-1.66688 -2.08426,-2.97656 -1.87042,-2.88928 -4.77385,-5.86254 -7.753474,-7.93995 -2.2184,-1.5467 -2.2184,-1.5467 -2.05692,-3.64081 0.34434,-4.46519 2.3606,-9.41574 5.743244,-14.10143 1.67041,-2.31386 5.31363,-6.20011 5.8124,-6.20011 0.16331,0 0.26032,2.31691 0.26032,6.21771 0,5.85773 -0.12322,6.86758 -0.71446,5.85553 -0.11637,-0.19919 -1.07528,-1.28334 -2.1309,-2.40921 -1.91932,-2.04705 -1.91932,-2.04705 -2.4386,-1.42377 -0.2856,0.34281 -0.52323,0.70908 -0.52808,0.81393 -0.005,0.10486 1.30089,1.67536 2.90162,3.49 2.91042,3.29935 2.91042,3.29935 2.91042,6.09321 0,1.53662 -0.0677,2.79385 -0.15039,2.79385 -0.0827,0 -1.75806,-1.63711 -3.72299,-3.63802 -3.57259,-3.63802 -3.57259,-3.63802 -4.08294,-3.01339 -0.28069,0.34354 -0.51035,0.76338 -0.51035,0.93298 0,0.1696 1.38905,1.67446 3.08677,3.34413 1.69772,1.66967 3.48228,3.65296 3.96568,4.40731 0.48339,0.75435 0.99935,1.44599 1.14656,1.53697 0.16237,0.10035 0.26766,1.82444 0.26766,4.38314 0,4.21772 0,4.21772 1.05833,4.21772 1.05833,0 1.05833,0 1.05833,-3.96576 0,-3.96575 0,-3.96575 1.55734,-6.15156 0.85653,-1.2022 2.89546,-3.48839 4.53096,-5.08044 2.97362,-2.89464 2.97362,-2.89464 2.50657,-3.7619 -0.46704,-0.86725 -0.46704,-0.86725 -1.15752,-0.37161 -0.79651,0.57176 -4.36174,4.23621 -6.18989,6.36214 -1.24746,1.45066 -1.24746,1.45066 -1.24746,-1.81779 0,-3.26846 0,-3.26846 2.93112,-6.40188 2.93112,-3.13342 2.93112,-3.13342 2.4565,-3.9369 -0.26105,-0.44191 -0.55339,-0.80347 -0.64965,-0.80347 -0.0963,0 -1.09381,1.01203 -2.21678,2.24896 -1.12297,1.23693 -2.14963,2.24896 -2.28147,2.24896 -0.13643,0 -0.23972,-2.67898 -0.23972,-6.21771 0,-3.48822 0.10408,-6.21771 0.2371,-6.21771 0.39082,0 4.1258,4.10084 5.97857,6.56419 2.01036,2.67291 4.42278,7.31668 5.18053,9.97227 0.29066,1.01864 0.59913,2.80458 0.68549,3.96875 0.15702,2.11667 0.15702,2.11667 -1.82856,3.37294 -3.47618,2.1994 -7.06222,5.94133 -9.19206,9.59164 -0.84595,1.44987 -1.59901,2.24896 -2.1194,2.24896 -0.24031,0 -0.68115,-0.26789 -0.97964,-0.59531 z"
           id="fulla"
           stroke="#228B22" stroke-width="2" fill="none"
           inkscape:connector-curvature="0"
           sodipodi:nodetypes="csssssccsscccscccsccccsccccsscscscscscscsscsccscsccccccscssccscccccscsscscccsscccssccsccccsccscccccccccccsscscccccccccscccscccscccscccccsccscscsccccccsccccccccsccsccccccccsccccssccsccccsscsccsssccssccssscccccsscssssscssccss" />
      </g>
    </g>
  </g>
</svg>
